<svg width="23" height="23" viewBox="0 0 23 23" fill="none" xmlns="http://www.w3.org/2000/svg">
<path fill-rule="evenodd" clip-rule="evenodd" d="M11.2209 0C8.29947 0 5.88711 2.17852 5.51944 5L4.85686 5C3.86118 4.99997 3.03549 4.99994 2.38748 5.09049C1.70624 5.18567 1.0941 5.39585 0.628573 5.91597C0.163044 6.43609 0.0217537 7.06769 0.00238016 7.75527C-0.0160483 8.40932 0.0751593 9.22995 0.185145 10.2195L0.493034 12.9905C0.723065 15.0609 0.903726 16.687 1.21058 17.9508C1.5251 19.2462 1.99289 20.2572 2.86134 21.0345C3.73062 21.8125 4.7921 22.1654 6.12148 22.3347C7.41941 22.5 9.06755 22.5 11.1674 22.5H11.2744C13.3742 22.5 15.0224 22.5 16.3204 22.3347C17.6497 22.1654 18.7112 21.8125 19.5805 21.0345C20.449 20.2572 20.9167 19.2462 21.2313 17.9508C21.5381 16.687 21.7188 15.061 21.9488 12.9907L22.2567 10.2195C22.3667 9.22996 22.4579 8.40931 22.4395 7.75527C22.4201 7.06769 22.2788 6.43609 21.8133 5.91597C21.3477 5.39585 20.7356 5.18567 20.0544 5.09049C19.4064 4.99994 18.5807 4.99997 17.585 5L16.9224 5C16.5548 2.17858 14.1424 0 11.2209 0ZM11.2209 1.5C13.3122 1.5 15.0509 3.01063 15.405 5H7.03683C7.39093 3.01068 9.12964 1.5 11.2209 1.5ZM5.75128 9.21967C5.45838 8.92678 4.98351 8.92678 4.69062 9.21967C4.39772 9.51256 4.39772 9.98744 4.69062 10.2803L5.29062 10.8803C8.56585 14.1556 13.876 14.1556 17.1513 10.8803L17.7513 10.2803C18.0442 9.98744 18.0442 9.51256 17.7513 9.21967C17.4584 8.92678 16.9835 8.92678 16.6906 9.21967L16.0906 9.81967C13.4012 12.5091 9.04072 12.5091 6.35128 9.81967L5.75128 9.21967Z" fill="#2D264B"/>
</svg>
