<svg width="365" height="75" viewBox="0 0 365 75" fill="none" xmlns="http://www.w3.org/2000/svg">
<g clip-path="url(#clip0_77_978)">
<path d="M39.8256 62.8251C39.8256 66.9888 38.0837 70.0559 34.6038 72.0343C31.1239 74.0127 25.8243 75 18.7048 75C15.2249 75 12.2867 74.7658 9.89794 74.2976C7.55984 73.88 5.63871 73.2557 4.13063 72.4245C2.67712 71.5933 1.60939 70.5788 0.935238 69.3808C0.311746 68.1828 0 66.8327 0 65.3225C0 63.1373 0.596214 61.4203 1.79254 60.1716C3.03952 58.9737 4.7814 58.0918 7.01429 57.5182V56.7377C5.66209 56.2187 4.57098 55.489 3.74095 54.5525C2.96159 53.616 2.5719 52.3946 2.5719 50.8844C2.5719 48.906 3.24606 47.4232 4.59825 46.436C5.95045 45.3941 7.68844 44.6136 9.82 44.0946V43.7044C7.37669 42.5611 5.48283 40.9456 4.13063 38.8657C2.77844 36.7858 2.10429 34.2885 2.10429 31.3735C2.10429 29.239 2.49397 27.3152 3.27333 25.5983C4.0527 23.8306 5.14381 22.3478 6.54667 21.1498C8.00018 19.9011 9.71478 18.9373 11.6905 18.2622C13.7168 17.5871 15.977 17.2476 18.471 17.2476C21.2767 17.2476 23.7979 17.6886 26.0308 18.5743V17.2476C26.0308 15.6867 26.4711 14.3873 27.3557 13.3454C28.2403 12.3035 29.5886 11.7845 31.4084 11.7845H38.7344V18.4963H29.3821V20.3694C31.1473 21.5673 32.4995 23.1009 33.4348 24.9739C34.37 26.7963 34.8376 28.9268 34.8376 31.3735C34.8376 33.508 34.4479 35.4591 33.6686 37.2268C32.8892 38.9438 31.7708 40.4266 30.3173 41.6753C28.9144 42.8733 27.1998 43.8098 25.1735 44.4849C23.1978 45.1092 20.9649 45.4214 18.471 45.4214C16.7057 45.4214 15.0417 45.2653 13.483 44.9531C12.5478 45.2146 11.6125 45.6555 10.6773 46.2799C9.74206 46.9042 9.27444 47.7627 9.27444 48.8553C9.27444 50.104 9.87066 50.8844 11.067 51.1966C12.2633 51.5088 13.7441 51.6649 15.5094 51.6649H24.55C29.9549 51.6649 33.8517 52.7068 36.2405 54.7866C38.6292 56.8158 39.8256 59.4966 39.8256 62.8251ZM31.876 63.3714C31.876 62.0174 31.3305 60.9248 30.2394 60.0936C29.1483 59.3132 27.1726 58.9229 24.3162 58.9229H10.3656C8.38986 59.8595 7.40397 61.3696 7.40397 63.4495C7.40397 64.9596 8.02746 66.2591 9.27444 67.3517C10.5721 68.4443 12.7036 68.9906 15.6652 68.9906H21.9781C25.2008 68.9906 27.6402 68.495 29.3041 67.5078C31.0187 66.5712 31.876 65.1938 31.876 63.3714ZM18.471 39.5681C21.226 39.5681 23.2524 38.9164 24.55 37.617C25.8476 36.3176 26.4984 34.5733 26.4984 32.3881V30.2809C26.4984 28.0957 25.8476 26.3514 24.55 25.052C23.2524 23.7525 21.226 23.1009 18.471 23.1009C15.7159 23.1009 13.6895 23.7525 12.3919 25.052C11.0943 26.3514 10.4435 28.0957 10.4435 30.2809V32.3881C10.4435 34.5733 11.0943 36.3176 12.3919 37.617C13.6895 38.9164 15.7159 39.5681 18.471 39.5681Z" fill="white"/>
<path d="M66.4486 10.8481C64.2664 10.8481 62.735 10.4071 61.8504 9.52133C61.0204 8.63554 60.6034 7.54292 60.6034 6.2435V4.60458C60.6034 3.30515 61.0204 2.21254 61.8504 1.32674C62.735 0.440947 64.2391 0 66.3707 0C68.5023 0 70.061 0.440947 70.891 1.32674C71.7756 2.21254 72.216 3.30515 72.216 4.60458V6.2435C72.216 7.54292 71.7756 8.63554 70.891 9.52133C70.061 10.4071 68.5802 10.8481 66.4486 10.8481ZM48.4453 51.5869H62.1621V25.052H48.4453V18.1842H70.6572V51.5869H83.5167V58.4547H48.4453V51.5869Z" fill="white"/>
<path d="M93.4653 18.1842H101.96V25.052H102.428C103.624 22.6054 105.206 20.7089 107.182 19.3549C109.158 17.9501 111.625 17.2477 114.586 17.2477C119.313 17.2477 123.081 19.0154 125.887 22.5547C128.693 26.0939 130.095 31.3463 130.095 38.3195C130.095 45.2927 128.693 50.545 125.887 54.0843C123.081 57.6236 119.313 59.3913 114.586 59.3913C111.625 59.3913 109.158 58.7162 107.182 57.3621C105.206 55.9574 103.624 54.0336 102.428 51.5869H101.96V74.0635H93.4653V18.1842ZM111.079 52.4454C114.302 52.4454 116.768 51.4581 118.483 49.4797C120.248 47.5013 121.133 44.8752 121.133 41.5973V35.0416C121.133 31.7638 120.248 29.1376 118.483 27.1592C116.768 25.1808 114.302 24.1936 111.079 24.1936C109.832 24.1936 108.663 24.3497 107.572 24.6618C106.481 24.974 105.518 25.4423 104.688 26.0666C103.858 26.691 103.18 27.4714 102.662 28.4079C102.194 29.2937 101.96 30.359 101.96 31.6077V45.0312C101.96 46.2799 102.194 47.3726 102.662 48.3091C103.18 49.1949 103.858 49.948 104.688 50.5723C105.518 51.1967 106.481 51.665 107.572 51.9771C108.663 52.2893 109.832 52.4454 111.079 52.4454Z" fill="white"/>
<path d="M158.277 59.3913C155.211 59.3913 152.459 58.8957 150.016 57.9085C147.573 56.9212 145.523 55.5164 143.859 53.6941C142.195 51.8718 140.925 49.6866 140.04 47.1384C139.156 44.5357 138.715 41.6246 138.715 38.3975C138.715 35.1704 139.156 32.2594 140.04 29.6566C140.975 27.0539 142.25 24.8452 143.859 23.0229C145.523 21.1499 147.522 19.7178 149.86 18.7305C152.198 17.7433 154.798 17.2477 157.654 17.2477C160.51 17.2477 163.004 17.7433 165.292 18.7305C167.579 19.667 169.528 21.0211 171.137 22.7888C172.746 24.5565 173.97 26.6637 174.8 29.1103C175.685 31.557 176.125 34.2612 176.125 37.2269V40.4267H147.288V41.7534C147.288 44.9259 148.274 47.5286 150.25 49.5578C152.226 51.5362 154.953 52.5234 158.433 52.5234C161.032 52.5234 163.238 51.9771 165.058 50.8845C166.928 49.7412 168.436 48.231 169.578 46.358L174.878 51.0406C173.526 53.3819 171.449 55.3603 168.643 56.9719C165.888 58.5835 162.435 59.3913 158.277 59.3913ZM157.654 23.7253C156.146 23.7253 154.743 23.9868 153.445 24.5057C152.198 25.0247 151.107 25.7818 150.172 26.769C149.287 27.7055 148.586 28.8255 148.068 30.1249C147.549 31.4243 147.288 32.8564 147.288 34.4173V34.9636H167.474V34.1832C167.474 31.0107 166.566 28.486 164.746 26.6129C162.981 24.6891 160.615 23.7253 157.654 23.7253Z" fill="white"/>
<path d="M185.914 51.5869H196.591V25.052H185.914V18.1842H205.086V28.8762H205.554C205.916 27.4714 206.438 26.1173 207.112 24.8179C207.786 23.5185 208.644 22.3986 209.684 21.462C210.725 20.4748 211.995 19.6944 213.503 19.1207C215.011 18.4964 216.776 18.1842 218.803 18.1842H223.635V26.3008H215.685C212.568 26.3008 210.023 27.2373 208.048 29.1103C206.072 30.9326 205.086 33.4027 205.086 36.5245V51.5869H219.66V58.4548H185.914V51.5869Z" fill="white"/>
<path d="M250.102 59.2352C247.608 59.2352 245.843 58.7162 244.802 57.6743C243.817 56.6324 243.322 55.3603 243.322 53.8502V51.8211C243.322 50.3109 243.817 49.0388 244.802 47.9969C245.843 46.955 247.608 46.436 250.102 46.436C252.596 46.436 254.338 46.955 255.324 47.9969C256.364 49.0388 256.883 50.3109 256.883 51.8211V53.8502C256.883 55.3603 256.364 56.6324 255.324 57.6743C254.338 58.7162 252.596 59.2352 250.102 59.2352Z" fill="#E7FF00"/>
<path d="M279.531 51.5869H292.39V25.052H278.752V18.1842H292.39V10.9261C292.39 7.90973 293.22 5.46306 294.884 3.59001C296.548 1.66623 299.144 0.702393 302.678 0.702393H316.239V7.57024H300.886V18.1842H316.239V25.052H300.886V51.5869H314.446V58.4547H279.531V51.5869Z" fill="#E7FF00"/>
<path d="M325.175 58.4548V18.1842H332.423V23.4131H332.812C333.436 21.6962 334.32 20.2407 335.462 19.0427C336.658 17.8447 338.346 17.2477 340.528 17.2477C342.71 17.2477 344.296 17.8447 345.438 19.0427C346.634 20.186 347.386 21.7742 347.698 23.8034H348.01C348.739 21.981 349.752 20.4475 351.049 19.1988C352.347 17.8993 354.218 17.2477 356.661 17.2477C359.778 17.2477 361.933 18.3403 363.13 20.5255C364.377 22.7107 365 25.9105 365 30.1249V58.4548H357.752V31.2175C357.752 28.4079 357.413 26.4842 356.739 25.4423C356.061 24.3497 354.97 23.8034 353.466 23.8034C352.113 23.8034 350.972 24.2716 350.036 25.2081C349.152 26.0939 348.711 27.4441 348.711 29.2664V58.4548H341.463V31.2175C341.463 28.4079 341.124 26.4842 340.45 25.4423C339.827 24.3497 338.763 23.8034 337.255 23.8034C335.852 23.8034 334.683 24.2716 333.748 25.2081C332.863 26.0939 332.423 27.4441 332.423 29.2664V58.4548H325.175Z" fill="#E7FF00"/>
</g>
<defs>
<clipPath id="clip0_77_978">
<rect width="365" height="75" fill="white"/>
</clipPath>
</defs>
</svg>
