<svg width="22" height="21" viewBox="0 0 22 21" fill="none" xmlns="http://www.w3.org/2000/svg">
<path fill-rule="evenodd" clip-rule="evenodd" d="M17.705 0.987059C18.5269 1.80896 18.8163 2.96083 18.574 4.01557C20.2168 4.17816 21.5 5.56403 21.5 7.24962C21.5 8.18982 21.1008 9.03677 20.4626 9.6302C20.5 10.2246 20.5 10.7749 20.5 11.8643V11.9192C20.5 13.1168 20.5 14.0524 20.4508 14.8073C20.4009 15.5739 20.298 16.2072 20.0669 16.7918C19.489 18.2532 18.3762 19.4252 16.962 20.0389C16.3926 20.286 15.7769 20.3951 15.0393 20.4479C14.3152 20.4996 13.4194 20.4996 12.2792 20.4996H9.22089C8.08069 20.4996 7.18481 20.4996 6.46075 20.4479C5.72308 20.3951 5.1074 20.286 4.53803 20.0389C3.12384 19.4252 2.01097 18.2532 1.43314 16.7918C1.20201 16.2072 1.09909 15.5739 1.04916 14.8073C0.999995 14.0524 0.999997 13.1169 1 11.9192V11.8925C1 11.4168 0.990523 11.0335 0.982233 10.6982C0.971812 10.2768 0.963268 9.93116 0.977772 9.5733C0.374454 8.98326 0 8.16017 0 7.24962C0 5.51164 1.36421 4.09228 3.08023 4.00397C2.84267 2.95241 3.13303 1.80596 3.95192 0.987073C5.22112 -0.282131 7.27891 -0.282131 8.54811 0.987073L10.6694 3.10839C10.7248 3.16379 10.7778 3.22073 10.8284 3.27907C10.879 3.22073 10.932 3.16378 10.9874 3.10838L13.1088 0.987059C14.378 -0.282145 16.4357 -0.282145 17.705 0.987059ZM14.1694 2.04772C14.8528 1.3643 15.9609 1.3643 16.6443 2.04772C17.1718 2.5752 17.2924 3.35666 17.0051 3.99962H12.2175L14.1694 2.04772ZM7.48745 2.04773L9.43933 3.99962H4.65175C4.36448 3.35666 4.4851 2.57521 5.01258 2.04773C5.69599 1.36432 6.80403 1.36432 7.48745 2.04773ZM1.5 7.24962C1.5 6.28312 2.2835 5.49962 3.25 5.49962H11.5V9L3.25 8.99962C2.2835 8.99962 1.5 8.21611 1.5 7.24962ZM11.4573 18.9996L11.5 10.4996H18.25C18.5055 10.4996 18.7542 10.4701 18.9927 10.4144C18.9999 10.7832 19 11.2324 19 11.8925C19 13.1226 18.9996 14.0093 18.954 14.7098C18.9088 15.4041 18.8214 15.8622 18.6719 16.2403C18.2348 17.3458 17.401 18.2133 16.3649 18.6629C16.0154 18.8145 15.5892 18.9047 14.9323 18.9517C14.268 18.9992 13.4256 18.9996 12.25 18.9996H11.4573ZM11.4573 18.9996L11.5 10.4996H3.25C2.98329 10.4996 2.72408 10.4675 2.47603 10.4069L2.47973 10.5453C2.48873 10.8778 2.5 11.2939 2.5 11.8925C2.5 13.1226 2.50037 14.0093 2.54599 14.7098C2.59121 15.4041 2.67859 15.8622 2.82806 16.2403C3.26518 17.3458 4.09904 18.2133 5.13514 18.6629C5.48463 18.8145 5.9108 18.9047 6.56769 18.9517C7.23204 18.9992 8.0744 18.9996 9.25 18.9996H10.0427H11.4573ZM20 7.24962C20 6.28312 19.2165 5.49962 18.25 5.49962H11.5V7V9L18.25 8.99962C19.2165 8.99962 20 8.21611 20 7.24962Z" fill="#2D264B"/>
</svg>
